<svg id="Layer_1" enable-background="new 0 0 512 512" viewBox="0 0 512 512" xmlns="http://www.w3.org/2000/svg"><g id="Layer_2_00000056414314514357064480000002321536992577074108_"><g id="Layer_2_copy"><g id="_131"><path d="m407.7 0h-303.4c-57.6 0-104.3 46.7-104.3 104.4v200.4c0 57.6 46.7 104.4 104.3 104.4h49.8l31.6 60.1c30.6 58.2 114.3 56.5 142.7-2.7l27.4-57.4h51.8c57.6 0 104.4-46.7 104.3-104.4v-200.4c.1-57.7-46.6-104.4-104.2-104.4z" fill="#35d97e"/><g fill="#b2f3ca"><path d="m167 106h178c18.5 0 33.5 15 33.5 33.5 0 18.5-15 33.5-33.5 33.5h-178c-18.5 0-33.5-15-33.5-33.5 0-18.5 15-33.5 33.5-33.5z"/><path d="m161.8 223h118.4c15.6 0 28.3 12.7 28.3 28.3v10.4c0 15.6-12.7 28.3-28.3 28.3h-118.4c-15.6 0-28.3-12.7-28.3-28.3v-10.4c0-15.6 12.7-28.3 28.3-28.3z"/></g></g></g></g></svg>